{"accessors" : [{"bufferView" : 0, "byteOffset" : 0, "componentType" : 5125, "count" : 111558, "type" : "SCALAR", "max" : [111557], "min" : [0]}, {"bufferView" : 1, "byteOffset" : 0, "componentType" : 5126, "count" : 111558, "type" : "VEC3", "max" : [0.017694000154733658, 0.466946005821228, 1.25], "min" : [-0.017694000154733658, -0.466946005821228, -1.25], "name" : "POSITION"}, {"bufferView" : 1, "byteOffset" : 12, "componentType" : 5126, "count" : 111558, "type" : "VEC2", "max" : [546.1929931640625, 112.34100341796875], "min" : [-576.52001953125, -1025.06005859375], "name" : "TEXCOORD_0"}], "asset" : {"generator" : "Aspose.3D 23.4.0", "version" : "2.0"}, "buffers" : [{"uri" : "data:application/octet-stream;base64,", "byteLength" : 2677400}], "bufferViews" : [{"buffer" : 0, "byteOffset" : 0, "byteLength" : 446232, "target" : 34963}, {"buffer" : 0, "byteOffset" : 446236, "byteLength" : 2231160, "byteStride" : 20, "target" : 34962}], "meshes" : [{"primitives" : [{"attributes" : {"POSITION" : 1, "TEXCOORD_0" : 2}, "indices" : 0, "mode" : 4}], "name" : ""}], "nodes" : [{"mesh" : 0, "name" : "Object_TexMap_0"}], "scene" : 0, "scenes" : [{"nodes" : [0]}]}